# xmcd
#
# Track frame offsets: 
#        150
#        13690
#        25442
#        37563
#        52350
#        60157
#        76475
#        87226
#        98997
#        112071
#        127556
#        139703
#
# Disc length: 1990 seconds
#
# Revision: 0
# Processed by: cddbd v1.5.2PL0 Copyright (c) Steve Scherf et al.
# Submitted via: ExactAudioCopy v1.0b3
#
DISCID=9107c40c
DTITLE=Lorraine Jordan and Carolina Road - Fans Request Songs
DYEAR=2004
DGENRE=Bluegrass
TTITLE0=Carolina Memories
TTITLE1=Ninety Nine Years
TTITLE2=Blue And Lonesome
TTITLE3=Old Standby
TTITLE4=Just Because
TTITLE5=I Only Exist
TTITLE6=Deep River
TTITLE7=Stay Away From Me
TTITLE8=I Don't Want To Loose You
TTITLE9=Two Timing Lie
TTITLE10=Wicked Path Of Sin
TTITLE11=Let The Church Roll On Its Back
EXTD=
EXTT0=
EXTT1=
EXTT2=
EXTT3=
EXTT4=
EXTT5=
EXTT6=
EXTT7=
EXTT8=
EXTT9=
EXTT10=
EXTT11=
PLAYORDER=
